# xmcd
# Copyright (C) 1995-1998 Ti Kan
#
# Track frame offsets:
#       150
#       15092
#       34495
#       50440
#       66853
#       87601
#       105220
#       123146
#       139469
#       156577
#       169371
#       186347
#       206849
#       225119
#       244690
#       260983
#
# Disc length: 3699 seconds
#
# Revision: 15
# Processed by: cddbd v1.5.1PL0 Copyright (c) Steve Scherf et al.
# Submitted via: CD-Transfer v1.0
#
DISCID=e30e7110
DTITLE=Simple Kid - Euro Express 573
DYEAR=04
DGENRE=
TTITLE0=Nobody (Radio Dred-It)
TTITLE1=Some Kind Of Monster (Edit)
TTITLE2=Bring Me Down
TTITLE3=Touche
TTITLE4=Archetype
TTITLE5=Control
TTITLE6=4o Days (Radio Edit)
TTITLE7=Staring At The Sun (Radio Edit)
TTITLE8=Memory
TTITLE9=3 The Hard Way
TTITLE10=Primitive (Radio Edit)
TTITLE11=Hurry Tomorrow
TTITLE12=All Night
TTITLE13=The Stars Of Our Stars
TTITLE14=Gonna Be Some Changes Made (Short Edit)
TTITLE15=Say Anything 
EXTD=
EXTT0=
EXTT1=
EXTT2=
EXTT3=
EXTT4=
EXTT5=
EXTT6=
EXTT7=
EXTT8=
EXTT9=
EXTT10=
EXTT11=
EXTT12=
EXTT13=
EXTT14=
EXTT15=
PLAYORDER=
